<?xml version="1.0" encoding="UTF-8" standalone="no"?>
<svg
   xmlns:dc="http://purl.org/dc/elements/1.1/"
   xmlns:cc="http://creativecommons.org/ns#"
   xmlns:rdf="http://www.w3.org/1999/02/22-rdf-syntax-ns#"
   xmlns:svg="http://www.w3.org/2000/svg"
   xmlns="http://www.w3.org/2000/svg"
   xmlns:sodipodi="http://sodipodi.sourceforge.net/DTD/sodipodi-0.dtd"
   xmlns:inkscape="http://www.inkscape.org/namespaces/inkscape"
   width="300mm"
   height="250mm"
   viewBox="0 0 300 250"
   version="1.1"
   id="svg3280"
   inkscape:version="1.0.2-2 (e86c870879, 2021-01-15)"
   sodipodi:docname="kaikki_osat.svg">
  <defs
     id="defs3274">
    <clipPath
       clipPathUnits="userSpaceOnUse"
       id="clipPath3859">
      <path
         d="m 5289,6756 h 8997 V 8195 H 5289 V 6756"
         id="path3857" />
    </clipPath>
    <clipPath
       clipPathUnits="userSpaceOnUse"
       id="clipPath3881">
      <path
         d="M 0,0 H 19842 V 14031 H 0 V 0"
         id="path3879" />
    </clipPath>
    <clipPath
       clipPathUnits="userSpaceOnUse"
       id="clipPath3941">
      <path
         d="M 0,0 H 19842 V 14031 H 0 V 0"
         id="path3939" />
    </clipPath>
    <clipPath
       clipPathUnits="userSpaceOnUse"
       id="clipPath3953">
      <path
         d="M 0,0 H 19842 V 14031 H 0 V 0"
         id="path3951" />
    </clipPath>
    <clipPath
       clipPathUnits="userSpaceOnUse"
       id="clipPath4446">
      <path
         d="m 5697,4961 h 8997 V 9423 H 5697 V 4961"
         id="path4444" />
    </clipPath>
    <clipPath
       clipPathUnits="userSpaceOnUse"
       id="clipPath4458">
      <path
         d="M 0,0 H 19842 V 14031 H 0 V 0"
         id="path4456" />
    </clipPath>
    <clipPath
       clipPathUnits="userSpaceOnUse"
       id="clipPath4518">
      <path
         d="M 0,0 H 19842 V 14031 H 0 V 0"
         id="path4516" />
    </clipPath>
    <clipPath
       clipPathUnits="userSpaceOnUse"
       id="clipPath4530">
      <path
         d="M 0,0 H 19842 V 14031 H 0 V 0"
         id="path4528" />
    </clipPath>
    <clipPath
       clipPathUnits="userSpaceOnUse"
       id="clipPath3859-5">
      <path
         d="m 5289,6756 h 8997 V 8195 H 5289 V 6756"
         id="path3857-0" />
    </clipPath>
    <clipPath
       clipPathUnits="userSpaceOnUse"
       id="clipPath3859-5-8">
      <path
         d="m 5289,6756 h 8997 V 8195 H 5289 V 6756"
         id="path3857-0-9" />
    </clipPath>
    <clipPath
       clipPathUnits="userSpaceOnUse"
       id="clipPath4996">
      <path
         d="m 5963,6946 h 8997 V 9141 H 5963 V 6946"
         id="path4994" />
    </clipPath>
    <clipPath
       clipPathUnits="userSpaceOnUse"
       id="clipPath5012">
      <path
         d="M 0,0 H 19842 V 14031 H 0 V 0"
         id="path5010" />
    </clipPath>
    <clipPath
       clipPathUnits="userSpaceOnUse"
       id="clipPath5072">
      <path
         d="M 0,0 H 19842 V 14031 H 0 V 0"
         id="path5070" />
    </clipPath>
    <clipPath
       clipPathUnits="userSpaceOnUse"
       id="clipPath5084">
      <path
         d="M 0,0 H 19842 V 14031 H 0 V 0"
         id="path5082" />
    </clipPath>
    <clipPath
       clipPathUnits="userSpaceOnUse"
       id="clipPath5571">
      <path
         d="m 7449,5298 h 3612 V 8910 H 7449 V 5298"
         id="path5569" />
    </clipPath>
    <clipPath
       clipPathUnits="userSpaceOnUse"
       id="clipPath5583">
      <path
         d="M 0,0 H 19842 V 14031 H 0 V 0"
         id="path5581" />
    </clipPath>
    <clipPath
       clipPathUnits="userSpaceOnUse"
       id="clipPath5643">
      <path
         d="M 0,0 H 19842 V 14031 H 0 V 0"
         id="path5641" />
    </clipPath>
    <clipPath
       clipPathUnits="userSpaceOnUse"
       id="clipPath5655">
      <path
         d="M 0,0 H 19842 V 14031 H 0 V 0"
         id="path5653" />
    </clipPath>
    <clipPath
       clipPathUnits="userSpaceOnUse"
       id="clipPath5571-7">
      <path
         d="m 7449,5298 h 3612 V 8910 H 7449 V 5298"
         id="path5569-6" />
    </clipPath>
    <clipPath
       clipPathUnits="userSpaceOnUse"
       id="clipPath6176">
      <path
         d="m 1433,5103 h 17312 v 5029 H 1433 V 5103"
         id="path6174" />
    </clipPath>
    <clipPath
       clipPathUnits="userSpaceOnUse"
       id="clipPath6202">
      <path
         d="M 0,0 H 19842 V 14031 H 0 V 0"
         id="path6200" />
    </clipPath>
    <clipPath
       clipPathUnits="userSpaceOnUse"
       id="clipPath6262">
      <path
         d="M 0,0 H 19842 V 14031 H 0 V 0"
         id="path6260" />
    </clipPath>
    <clipPath
       clipPathUnits="userSpaceOnUse"
       id="clipPath6274">
      <path
         d="M 0,0 H 19842 V 14031 H 0 V 0"
         id="path6272" />
    </clipPath>
    <clipPath
       clipPathUnits="userSpaceOnUse"
       id="clipPath6176-5">
      <path
         d="m 1433,5103 h 17312 v 5029 H 1433 V 5103"
         id="path6174-1" />
    </clipPath>
    <clipPath
       clipPathUnits="userSpaceOnUse"
       id="clipPath6837">
      <path
         d="m 4949,5069 h 10699 v 5785 H 4949 V 5069"
         id="path6835" />
    </clipPath>
    <clipPath
       clipPathUnits="userSpaceOnUse"
       id="clipPath6875">
      <path
         d="M 0,0 H 19842 V 14031 H 0 V 0"
         id="path6873" />
    </clipPath>
    <clipPath
       clipPathUnits="userSpaceOnUse"
       id="clipPath6935">
      <path
         d="M 0,0 H 19842 V 14031 H 0 V 0"
         id="path6933" />
    </clipPath>
    <clipPath
       clipPathUnits="userSpaceOnUse"
       id="clipPath6947">
      <path
         d="M 0,0 H 19842 V 14031 H 0 V 0"
         id="path6945" />
    </clipPath>
    <clipPath
       clipPathUnits="userSpaceOnUse"
       id="clipPath6176-5-4">
      <path
         d="m 1433,5103 h 17312 v 5029 H 1433 V 5103"
         id="path6174-1-2" />
    </clipPath>
    <clipPath
       clipPathUnits="userSpaceOnUse"
       id="clipPath1465">
      <path
         d="M 6194,4636 H 16893 V 9996 H 6194 V 4636"
         id="path1463" />
    </clipPath>
    <clipPath
       clipPathUnits="userSpaceOnUse"
       id="clipPath1503">
      <path
         d="M 0,0 H 19842 V 14031 H 0 V 0"
         id="path1501" />
    </clipPath>
    <clipPath
       clipPathUnits="userSpaceOnUse"
       id="clipPath1563">
      <path
         d="M 0,0 H 19842 V 14031 H 0 V 0"
         id="path1561" />
    </clipPath>
    <clipPath
       clipPathUnits="userSpaceOnUse"
       id="clipPath1575">
      <path
         d="M 0,0 H 19842 V 14031 H 0 V 0"
         id="path1573" />
    </clipPath>
    <clipPath
       clipPathUnits="userSpaceOnUse"
       id="clipPath6176-5-7">
      <path
         d="m 1433,5103 h 17312 v 5029 H 1433 V 5103"
         id="path6174-1-8" />
    </clipPath>
    <clipPath
       clipPathUnits="userSpaceOnUse"
       id="clipPath3859-5-8-2">
      <path
         d="m 5289,6756 h 8997 V 8195 H 5289 V 6756"
         id="path3857-0-9-1" />
    </clipPath>
    <clipPath
       clipPathUnits="userSpaceOnUse"
       id="clipPath3859-5-8-2-9">
      <path
         d="m 5289,6756 h 8997 V 8195 H 5289 V 6756"
         id="path3857-0-9-1-0" />
    </clipPath>
    <clipPath
       clipPathUnits="userSpaceOnUse"
       id="clipPath3859-5-8-5">
      <path
         d="m 5289,6756 h 8997 V 8195 H 5289 V 6756"
         id="path3857-0-9-7" />
    </clipPath>
    <clipPath
       clipPathUnits="userSpaceOnUse"
       id="clipPath3859-5-8-52">
      <path
         d="m 5289,6756 h 8997 V 8195 H 5289 V 6756"
         id="path3857-0-9-3" />
    </clipPath>
    <clipPath
       clipPathUnits="userSpaceOnUse"
       id="clipPath3859-5-8-52-0">
      <path
         d="m 5289,6756 h 8997 V 8195 H 5289 V 6756"
         id="path3857-0-9-3-4" />
    </clipPath>
    <clipPath
       clipPathUnits="userSpaceOnUse"
       id="clipPath6176-5-5">
      <path
         d="m 1433,5103 h 17312 v 5029 H 1433 V 5103"
         id="path6174-1-7" />
    </clipPath>
    <clipPath
       clipPathUnits="userSpaceOnUse"
       id="clipPath3859-5-8-1">
      <path
         d="m 5289,6756 h 8997 V 8195 H 5289 V 6756"
         id="path3857-0-9-4" />
    </clipPath>
    <clipPath
       clipPathUnits="userSpaceOnUse"
       id="clipPath3859-5-8-1-4">
      <path
         d="m 5289,6756 h 8997 V 8195 H 5289 V 6756"
         id="path3857-0-9-4-6" />
    </clipPath>
    <clipPath
       clipPathUnits="userSpaceOnUse"
       id="clipPath6176-5-5-5">
      <path
         d="m 1433,5103 h 17312 v 5029 H 1433 V 5103"
         id="path6174-1-7-6" />
    </clipPath>
    <clipPath
       clipPathUnits="userSpaceOnUse"
       id="clipPath6176-5-5-1">
      <path
         d="m 1433,5103 h 17312 v 5029 H 1433 V 5103"
         id="path6174-1-7-62" />
    </clipPath>
    <clipPath
       clipPathUnits="userSpaceOnUse"
       id="clipPath3859-5-8-8">
      <path
         d="m 5289,6756 h 8997 V 8195 H 5289 V 6756"
         id="path3857-0-9-13" />
    </clipPath>
    <clipPath
       clipPathUnits="userSpaceOnUse"
       id="clipPath3859-5-8-8-1">
      <path
         d="m 5289,6756 h 8997 V 8195 H 5289 V 6756"
         id="path3857-0-9-13-9" />
    </clipPath>
    <clipPath
       clipPathUnits="userSpaceOnUse"
       id="clipPath6176-5-5-4">
      <path
         d="m 1433,5103 h 17312 v 5029 H 1433 V 5103"
         id="path6174-1-7-0" />
    </clipPath>
    <clipPath
       clipPathUnits="userSpaceOnUse"
       id="clipPath6176-5-5-0">
      <path
         d="m 1433,5103 h 17312 v 5029 H 1433 V 5103"
         id="path6174-1-7-9" />
    </clipPath>
    <clipPath
       clipPathUnits="userSpaceOnUse"
       id="clipPath6176-5-5-19">
      <path
         d="m 1433,5103 h 17312 v 5029 H 1433 V 5103"
         id="path6174-1-7-626" />
    </clipPath>
  </defs>
  <sodipodi:namedview
     id="base"
     pagecolor="#ffffff"
     bordercolor="#666666"
     borderopacity="1.0"
     inkscape:pageopacity="0.0"
     inkscape:pageshadow="2"
     inkscape:zoom="0.66190376"
     inkscape:cx="283.78585"
     inkscape:cy="484.52876"
     inkscape:document-units="mm"
     inkscape:current-layer="g6172-4-5"
     inkscape:document-rotation="0"
     showgrid="false"
     inkscape:window-width="1920"
     inkscape:window-height="1017"
     inkscape:window-x="-8"
     inkscape:window-y="-8"
     inkscape:window-maximized="1"
     inkscape:snap-global="false"
     units="mm"
     width="300mm" />
  <metadata
     id="metadata3277">
    <rdf:RDF>
      <cc:Work
         rdf:about="">
        <dc:format>image/svg+xml</dc:format>
        <dc:type
           rdf:resource="http://purl.org/dc/dcmitype/StillImage" />
        <dc:title></dc:title>
      </cc:Work>
    </rdf:RDF>
  </metadata>
  <g
     inkscape:label="Taso 1"
     inkscape:groupmode="layer"
     id="layer1">
    <g
       id="g4990"
       transform="matrix(0.0105809,0,0,-0.01056582,140.01315,256.33172)"
       style="fill:none;stroke:#000000;stroke-width:1.90502;stroke-miterlimit:10;stroke-dasharray:none;stroke-opacity:1" />
    <g
       id="g5078"
       transform="matrix(0.02116667,0,0,-0.02116667,-190.03286,374.51395)" />
    <g
       id="g6941"
       transform="matrix(0.02116667,0,0,-0.02116667,159.80829,385.90013)" />
    <g
       id="g10094"
       transform="translate(0,-0.28265237)">
      <g
         id="g11014">
        <g
           id="g11089">
          <g
             id="g11237">
            <g
               id="g11359">
              <g
                 id="g4440"
                 transform="matrix(0.01058092,0,0,-0.01057719,-53.552812,101.00199)"
                 style="fill:none;stroke:#000000;stroke-width:1.89796;stroke-miterlimit:10;stroke-dasharray:none;stroke-opacity:1">
                <g
                   id="g4442"
                   clip-path="url(#clipPath4446)"
                   style="fill:none;stroke:#000000;stroke-width:1.89796;stroke-miterlimit:10;stroke-dasharray:none;stroke-opacity:1">
                  <path
                     d="m 6983,6247 v 2268 h 6425 V 6247 H 6983"
                     style="fill:none;stroke:#000000;stroke-width:1.89796;stroke-linecap:round;stroke-linejoin:round;stroke-miterlimit:10;stroke-dasharray:none;stroke-opacity:1"
                     id="path4448" />
                  <path
                     d="m 7063.7875,5491 -3.7387,-378 h 1545.9904 v 378 h 2470.0118 v -378 h 790.007 v 378 h 2339.555 V 6891.938 H 14542 v 978.1426 h -336.387 V 9271 H 6185.4665 V 7870.0806 H 5849.004 V 6891.938 h 336.4665 V 5491 h 874.5823"
                     style="fill:none;stroke:#000000;stroke-width:1.89796;stroke-linecap:round;stroke-linejoin:round;stroke-miterlimit:10;stroke-dasharray:none;stroke-opacity:1"
                     id="path4450"
                     sodipodi:nodetypes="ccccccccccccccccccccc" />
                </g>
              </g>
              <g
                 id="g3855-3-1"
                 clip-path="url(#clipPath3859-5-8)"
                 style="fill:none;stroke:#000000;stroke-width:1.91341;stroke-miterlimit:4;stroke-dasharray:none;stroke-opacity:1"
                 transform="matrix(-0.01055437,0,0,0.01035166,157.41439,-16.920309)">
                <path
                   d="M 12622,7286 H 6953"
                   style="fill:none;stroke:#000000;stroke-width:1.91341;stroke-linecap:round;stroke-linejoin:round;stroke-miterlimit:4;stroke-dasharray:none;stroke-opacity:1"
                   id="path3861-7-6" />
                <g
                   id="g3863-6-0"
                   transform="rotate(-90,10049.5,-2573)"
                   style="fill:none;stroke:#000000;stroke-width:1.91341;stroke-miterlimit:4;stroke-dasharray:none;stroke-opacity:1">
                  <path
                     d="M 188.5,0 C 188.5,104.65797 104.10568,189.5 0,189.5 -104.10568,189.5 -188.5,104.65797 -188.5,0"
                     style="fill:none;stroke:#000000;stroke-width:1.91341;stroke-linecap:round;stroke-linejoin:round;stroke-miterlimit:4;stroke-dasharray:none;stroke-opacity:1"
                     id="path3865-7-0" />
                </g>
                <path
                   d="m 6953,7665 h 5669"
                   style="fill:none;stroke:#000000;stroke-width:1.91341;stroke-linecap:round;stroke-linejoin:round;stroke-miterlimit:4;stroke-dasharray:none;stroke-opacity:1"
                   id="path3867-9-2" />
                <g
                   id="g3869-5-7"
                   transform="rotate(90,-261.5,7215)"
                   style="fill:none;stroke:#000000;stroke-width:1.91341;stroke-miterlimit:4;stroke-dasharray:none;stroke-opacity:1">
                  <path
                     d="M 188.5,0 C 188.5,104.65797 104.10568,189.5 0,189.5 -104.10568,189.5 -188.5,104.65797 -188.5,0"
                     style="fill:none;stroke:#000000;stroke-width:1.91341;stroke-linecap:round;stroke-linejoin:round;stroke-miterlimit:4;stroke-dasharray:none;stroke-opacity:1"
                     id="path3871-7-8" />
                </g>
                <path
                   d="m 5764.655,6800.2166 h 8042.402 l 0.639,262.3184 h 337.268 l -0.05,808.566 h -337.268 v 279.6236 H 5767.4253 V 7871.101 h -337.3421 l 0.047,-808.566 h 337.3421 l -2.4138,-262.3184"
                   style="fill:none;stroke:#000000;stroke-width:1.91341;stroke-linecap:round;stroke-linejoin:round;stroke-miterlimit:4;stroke-dasharray:none;stroke-opacity:1"
                   id="path3873-2-6"
                   sodipodi:nodetypes="ccccccccccccc" />
              </g>
              <g
                 id="g4992"
                 clip-path="url(#clipPath4996)"
                 style="fill:none;stroke:#000000;stroke-width:1.90502;stroke-miterlimit:10;stroke-dasharray:none;stroke-opacity:1"
                 transform="matrix(0,-0.0105809,-0.01056582,0,329.49559,273.74322)">
                <g
                   id="g8073"
                   transform="matrix(0,-1.0014272,0.99857479,0,2429.4637,18519.931)"
                   style="fill:none;stroke:#000000;stroke-opacity:1">
                  <path
                     d="m 10507.54,9000.7868 c -57.455,0 -104.033,-46.644 -104.033,-104.1815 0,-57.5386 46.578,-104.1825 104.033,-104.1825 57.454,0 104.032,46.6439 104.032,104.1825 0,57.5375 -46.578,104.1815 -104.032,104.1815"
                     style="fill:none;stroke:#000000;stroke-width:1.74736;stroke-linecap:round;stroke-linejoin:round;stroke-miterlimit:10;stroke-dasharray:none;stroke-opacity:1"
                     id="path4998" />
                  <path
                     d="M 11169.989,8610.8087 V 6434.7078 H 9847.8755 v 2176.1009 h 1322.1135"
                     style="fill:none;stroke:#000000;stroke-width:1.90502;stroke-linecap:round;stroke-linejoin:round;stroke-miterlimit:10;stroke-dasharray:none;stroke-opacity:1"
                     id="path5000" />
                  <path
                     d="m 10507.54,6256.8763 c -57.455,0 -104.033,-46.6439 -104.033,-104.1826 0,-57.5376 46.578,-104.1815 104.033,-104.1815 57.455,0 104.032,46.6439 104.032,104.1815 0,57.5387 -46.577,104.1826 -104.032,104.1826"
                     style="fill:none;stroke:#000000;stroke-width:1.74736;stroke-linecap:round;stroke-linejoin:round;stroke-miterlimit:10;stroke-dasharray:none;stroke-opacity:1"
                     id="path5002" />
                  <path
                     d="m 9877.8622,4027.7381 v -336.9412 l 1167.3868,0.045 v 336.9412 l 360.403,-0.045 v 8031.5959 l -360.403,0.05 v 336.87 l -1167.3868,-0.05 v -336.87 H 9517.3474 V 4027.7664 Z"
                     style="fill:none;stroke:#000000;stroke-width:1.90502;stroke-linecap:round;stroke-linejoin:round;stroke-miterlimit:10;stroke-dasharray:none;stroke-opacity:1"
                     id="path5004"
                     sodipodi:nodetypes="ccccccccccccc" />
                </g>
              </g>
              <g
                 id="g1461"
                 clip-path="url(#clipPath1465)"
                 style="fill:none;stroke:#000000;stroke-width:0.897638;stroke-miterlimit:4;stroke-dasharray:none;stroke-opacity:1"
                 transform="matrix(0.02116667,0,0,-0.02116667,-127.4806,327.38898)">
                <path
                   d="m 14237,8970 h 2126 v -577 h -2126 v 577"
                   style="fill:none;stroke:#000000;stroke-width:0.897638;stroke-linecap:round;stroke-linejoin:round;stroke-miterlimit:4;stroke-dasharray:none;stroke-opacity:1"
                   id="path1467" />
                <path
                   d="m 13669.84,8534.1178 v -140.446 h -188.68 v 140.2072 z"
                   style="fill:none;stroke:#000000;stroke-width:1.03748;stroke-linecap:round;stroke-linejoin:round;stroke-miterlimit:4;stroke-dasharray:none;stroke-opacity:1"
                   id="path1469"
                   sodipodi:nodetypes="ccccc" />
                <path
                   d="m 14237,6938 v 576 h 2126 v -576 h -2126"
                   style="fill:none;stroke:#000000;stroke-width:0.897638;stroke-linecap:round;stroke-linejoin:round;stroke-miterlimit:4;stroke-dasharray:none;stroke-opacity:1"
                   id="path1471" />
                <path
                   d="m 14851.351,5306.9637 h 1180.298 v -132.3451 l -1180.715,-0.011 z"
                   style="fill:none;stroke:#000000;stroke-width:0.886897;stroke-linecap:round;stroke-linejoin:round;stroke-miterlimit:4;stroke-dasharray:none;stroke-opacity:1"
                   id="path1473"
                   sodipodi:nodetypes="ccccc" />
                <path
                   d="m 16362.935,5756.9355 v 756.129 h 132.352 l -0.254,-756.129 z"
                   style="fill:none;stroke:#000000;stroke-width:0.89744;stroke-linecap:round;stroke-linejoin:round;stroke-miterlimit:4;stroke-dasharray:none;stroke-opacity:1"
                   id="path1475"
                   sodipodi:nodetypes="ccccc" />
                <path
                   d="m 16031.643,9325.149 h -1180.286 l -0.02,132.3312 h 1180.286 l 0.02,-132.3312"
                   style="fill:none;stroke:#000000;stroke-width:0.897377;stroke-linecap:round;stroke-linejoin:round;stroke-miterlimit:4;stroke-dasharray:none;stroke-opacity:1"
                   id="path1477"
                   sodipodi:nodetypes="ccccc" />
                <path
                   d="m 16362.935,7764.9355 v 378.129 h 132.352 l -0.254,-376.4598 z"
                   style="fill:none;stroke:#000000;stroke-width:0.89744;stroke-linecap:round;stroke-linejoin:round;stroke-miterlimit:4;stroke-dasharray:none;stroke-opacity:1"
                   id="path1479"
                   sodipodi:nodetypes="ccccc" />
                <path
                   d="m 13078.626,9457.4807 0.02,-132.3304 H 11898.36 l 0.278,132.3311 z"
                   style="fill:none;stroke:#000000;stroke-width:0.897407;stroke-linecap:round;stroke-linejoin:round;stroke-miterlimit:4;stroke-dasharray:none;stroke-opacity:1"
                   id="path1481"
                   sodipodi:nodetypes="ccccc" />
                <path
                   d="m 10125.626,9457.4802 0.02,-132.3312 H 8945.3566 l -0.017,132.3268 z"
                   style="fill:none;stroke:#000000;stroke-width:0.897377;stroke-linecap:round;stroke-linejoin:round;stroke-miterlimit:4;stroke-dasharray:none;stroke-opacity:1"
                   id="path1483"
                   sodipodi:nodetypes="ccccc" />
                <path
                   d="m 11898.352,5306.963 h 1180.296 v -132.3545 h -1180.296 v 132.3545"
                   style="fill:none;stroke:#000000;stroke-width:0.888286;stroke-linecap:round;stroke-linejoin:round;stroke-miterlimit:4;stroke-dasharray:none;stroke-opacity:1"
                   id="path1485"
                   sodipodi:nodetypes="ccccc" />
                <path
                   d="m 13481.151,7513.6196 h 188.698 v -132.2352 h -188.698 z"
                   style="fill:none;stroke:#000000;stroke-width:1.01389;stroke-linecap:round;stroke-linejoin:round;stroke-miterlimit:4;stroke-dasharray:none;stroke-opacity:1"
                   id="path1487"
                   sodipodi:nodetypes="ccccc" />
                <path
                   d="m 6635.0869,5190.5 c 0,-62.6364 50.7767,-113.4131 113.4131,-113.4131 62.6364,0 113.4131,50.7767 113.4131,113.4131 0,62.6364 -50.7767,113.4131 -113.4131,113.4131 -62.6364,0 -113.4131,-50.7767 -113.4131,-113.4131"
                   style="fill:none;stroke:#000000;stroke-width:0.890305;stroke-linecap:round;stroke-linejoin:round;stroke-miterlimit:4;stroke-dasharray:none;stroke-opacity:1"
                   id="path1489" />
                <path
                   d="M 8945.3521,5306.963 H 10125.648 V 5174.6085 H 8945.3521 v 132.3545"
                   style="fill:none;stroke:#000000;stroke-width:0.888286;stroke-linecap:round;stroke-linejoin:round;stroke-miterlimit:4;stroke-dasharray:none;stroke-opacity:1"
                   id="path1491"
                   sodipodi:nodetypes="ccccc" />
                <path
                   d="m 6635.0869,9442.5 c 0,-62.6359 50.7767,-113.4131 113.4131,-113.4131 62.6364,0 113.4131,50.7772 113.4131,113.4131 0,62.6359 -50.7767,113.4131 -113.4131,113.4131 -62.6364,0 -113.4131,-50.7772 -113.4131,-113.4131"
                   style="fill:none;stroke:#000000;stroke-width:0.890305;stroke-linecap:round;stroke-linejoin:round;stroke-miterlimit:4;stroke-dasharray:none;stroke-opacity:1"
                   id="path1493" />
                <path
                   d="m 6346,4788 h 827 l 165,165 h 9403 V 9679 H 7339 l -166,165 H 6346 V 4788"
                   style="fill:none;fill-opacity:1;stroke:#000000;stroke-width:0.897638;stroke-linecap:round;stroke-linejoin:round;stroke-miterlimit:4;stroke-dasharray:none;stroke-opacity:1"
                   id="path1495" />
              </g>
              <g
                 id="g6172-4-5"
                 clip-path="url(#clipPath6176-5-5)"
                 style="fill:none;stroke:#000000;stroke-width:1.89244;stroke-miterlimit:10;stroke-dasharray:none;stroke-opacity:1"
                 transform="matrix(0.01056834,0,0,-0.01056834,87.298238,163.24419)">
                <path
                   d="m 16230.982,6776.351 c 0,-256.0761 207.591,-463.6667 463.666,-463.6667 256.077,0 463.668,207.5906 463.668,463.6667 0,256.0761 -207.591,463.6667 -463.668,463.6667 -256.075,0 -463.666,-207.5906 -463.666,-463.6667"
                   style="fill:none;stroke:#000000;stroke-width:1.85705;stroke-linecap:round;stroke-linejoin:round;stroke-miterlimit:10;stroke-dasharray:none;stroke-opacity:1"
                   id="path6178-1-3" />
                <path
                   d="M 3096.9201,7367.8764 V 7102.6506 H 1963.0799 v 264.7177 z"
                   style="fill:none;stroke:#000000;stroke-width:1.62663;stroke-linecap:round;stroke-linejoin:round;stroke-miterlimit:10;stroke-dasharray:none;stroke-opacity:1"
                   id="path6180-4-3"
                   sodipodi:nodetypes="ccccc" />
                <path
                   d="m 15332.676,9269.0515 h -755.352 v 265.2248 h 755.352 v -265.2248"
                   style="fill:none;stroke:#000000;stroke-width:1.62601;stroke-linecap:round;stroke-linejoin:round;stroke-miterlimit:10;stroke-dasharray:none;stroke-opacity:1"
                   id="path6182-7-9"
                   sodipodi:nodetypes="ccccc" />
                <path
                   d="M 15758,7192 V 6578 H 3475 v 1890 h 14079 l 283,-284 h 292.788 V 7240 H 17837 v 236 h -1795 l -284,-284"
                   style="fill:none;stroke:#000000;stroke-width:1.89244;stroke-linecap:round;stroke-linejoin:round;stroke-miterlimit:10;stroke-dasharray:none;stroke-opacity:1"
                   id="path6184-9-7"
                   sodipodi:nodetypes="cccccccccccc" />
                <path
                   d="m 10797.677,9269.8471 h -755.387 v 264.4011 l 755.098,0.8253 z"
                   style="fill:none;stroke:#000000;stroke-width:1.62432;stroke-linecap:round;stroke-linejoin:round;stroke-miterlimit:10;stroke-dasharray:none;stroke-opacity:1"
                   id="path6186-7-3"
                   sodipodi:nodetypes="ccccc" />
                <path
                   d="m 5883.7095,9269.0515 h -755.3854 v 265.2248 h 755.3854 v -265.2248"
                   style="fill:none;stroke:#000000;stroke-width:1.62604;stroke-linecap:round;stroke-linejoin:round;stroke-miterlimit:10;stroke-dasharray:none;stroke-opacity:1"
                   id="path6188-9-0"
                   sodipodi:nodetypes="ccccc" />
                <path
                   d="M 18604.054,5820.3974 V 9982.1087 H 3371.2789 L 1573.9455,8184.5056 V 5820.3974 H 2975.7523 V 5442.06 h 916.2025 l 189.2457,-189.1687 h 189.2457 L 4459.6919,5442.06 H 5375.94 v 378.3374 H 8889.453 V 5442.06 H 11288.6 v 378.3374 h 3513.513 V 5442.06 h 916.195 l 189.246,-189.1687 h 189.245 l 189.246,189.1687 h 916.256 v 378.3374 h 1401.753"
                   style="fill:none;stroke:#000000;stroke-width:1.89451;stroke-linecap:round;stroke-linejoin:round;stroke-miterlimit:10;stroke-dasharray:none;stroke-opacity:1"
                   id="path6194-5-1"
                   sodipodi:nodetypes="cccccccccccccccccccccccccc" />
              </g>
              <g
                 id="g3855-3-1-8"
                 clip-path="url(#clipPath3859-5-8-8)"
                 style="fill:none;stroke:#000000;stroke-width:1.91341;stroke-miterlimit:4;stroke-dasharray:none;stroke-opacity:1"
                 transform="matrix(-0.01055437,0,0,0.01035166,157.28775,-0.3607583)">
                <path
                   d="M 12622,7286 H 6953"
                   style="fill:none;stroke:#000000;stroke-width:1.91341;stroke-linecap:round;stroke-linejoin:round;stroke-miterlimit:4;stroke-dasharray:none;stroke-opacity:1"
                   id="path3861-7-6-9" />
                <g
                   id="g3863-6-0-1"
                   transform="rotate(-90,10049.5,-2573)"
                   style="fill:none;stroke:#000000;stroke-width:1.91341;stroke-miterlimit:4;stroke-dasharray:none;stroke-opacity:1">
                  <path
                     d="M 188.5,0 C 188.5,104.65797 104.10568,189.5 0,189.5 -104.10568,189.5 -188.5,104.65797 -188.5,0"
                     style="fill:none;stroke:#000000;stroke-width:1.91341;stroke-linecap:round;stroke-linejoin:round;stroke-miterlimit:4;stroke-dasharray:none;stroke-opacity:1"
                     id="path3865-7-0-2" />
                </g>
                <path
                   d="m 6953,7665 h 5669"
                   style="fill:none;stroke:#000000;stroke-width:1.91341;stroke-linecap:round;stroke-linejoin:round;stroke-miterlimit:4;stroke-dasharray:none;stroke-opacity:1"
                   id="path3867-9-2-1" />
                <g
                   id="g3869-5-7-0"
                   transform="rotate(90,-261.5,7215)"
                   style="fill:none;stroke:#000000;stroke-width:1.91341;stroke-miterlimit:4;stroke-dasharray:none;stroke-opacity:1">
                  <path
                     d="M 188.5,0 C 188.5,104.65797 104.10568,189.5 0,189.5 -104.10568,189.5 -188.5,104.65797 -188.5,0"
                     style="fill:none;stroke:#000000;stroke-width:1.91341;stroke-linecap:round;stroke-linejoin:round;stroke-miterlimit:4;stroke-dasharray:none;stroke-opacity:1"
                     id="path3871-7-8-8" />
                </g>
                <path
                   d="m 5764.655,6800.2166 h 8042.402 l 0.639,262.3184 h 337.268 l -0.05,808.566 h -337.268 v 279.6236 H 5767.4253 V 7871.101 h -337.3421 l 0.047,-808.566 h 337.3421 l -2.4138,-262.3184"
                   style="fill:none;stroke:#000000;stroke-width:1.91341;stroke-linecap:round;stroke-linejoin:round;stroke-miterlimit:4;stroke-dasharray:none;stroke-opacity:1"
                   id="path3873-2-6-0"
                   sodipodi:nodetypes="ccccccccccccc" />
              </g>
              <g
                 id="g3855-3-1-8-0"
                 clip-path="url(#clipPath3859-5-8-8-1)"
                 style="fill:none;stroke:#000000;stroke-width:1.91341;stroke-miterlimit:4;stroke-dasharray:none;stroke-opacity:1"
                 transform="matrix(-0.01055437,0,0,0.01035166,157.28775,16.457058)">
                <path
                   d="M 12622,7286 H 6953"
                   style="fill:none;stroke:#000000;stroke-width:1.91341;stroke-linecap:round;stroke-linejoin:round;stroke-miterlimit:4;stroke-dasharray:none;stroke-opacity:1"
                   id="path3861-7-6-9-7" />
                <g
                   id="g3863-6-0-1-4"
                   transform="rotate(-90,10049.5,-2573)"
                   style="fill:none;stroke:#000000;stroke-width:1.91341;stroke-miterlimit:4;stroke-dasharray:none;stroke-opacity:1">
                  <path
                     d="M 188.5,0 C 188.5,104.65797 104.10568,189.5 0,189.5 -104.10568,189.5 -188.5,104.65797 -188.5,0"
                     style="fill:none;stroke:#000000;stroke-width:1.91341;stroke-linecap:round;stroke-linejoin:round;stroke-miterlimit:4;stroke-dasharray:none;stroke-opacity:1"
                     id="path3865-7-0-2-4" />
                </g>
                <path
                   d="m 6953,7665 h 5669"
                   style="fill:none;stroke:#000000;stroke-width:1.91341;stroke-linecap:round;stroke-linejoin:round;stroke-miterlimit:4;stroke-dasharray:none;stroke-opacity:1"
                   id="path3867-9-2-1-7" />
                <g
                   id="g3869-5-7-0-5"
                   transform="rotate(90,-261.5,7215)"
                   style="fill:none;stroke:#000000;stroke-width:1.91341;stroke-miterlimit:4;stroke-dasharray:none;stroke-opacity:1">
                  <path
                     d="M 188.5,0 C 188.5,104.65797 104.10568,189.5 0,189.5 -104.10568,189.5 -188.5,104.65797 -188.5,0"
                     style="fill:none;stroke:#000000;stroke-width:1.91341;stroke-linecap:round;stroke-linejoin:round;stroke-miterlimit:4;stroke-dasharray:none;stroke-opacity:1"
                     id="path3871-7-8-8-5" />
                </g>
                <path
                   d="m 5764.655,6800.2166 h 8042.402 l 0.639,262.3184 h 337.268 l -0.05,808.566 h -337.268 v 279.6236 H 5767.4253 V 7871.101 h -337.3421 l 0.047,-808.566 h 337.3421 l -2.4138,-262.3184"
                   style="fill:none;stroke:#000000;stroke-width:1.91341;stroke-linecap:round;stroke-linejoin:round;stroke-miterlimit:4;stroke-dasharray:none;stroke-opacity:1"
                   id="path3873-2-6-0-4"
                   sodipodi:nodetypes="ccccccccccccc" />
              </g>
              <g
                 id="g6172-4-5-3"
                 clip-path="url(#clipPath6176-5-5-19)"
                 style="fill:none;stroke:#000000;stroke-width:1.89244;stroke-miterlimit:10;stroke-dasharray:none;stroke-opacity:1"
                 transform="matrix(0.01056834,0,0,-0.01056834,88.644526,108.3684)">
                <path
                   d="m 16230.982,6776.351 c 0,-256.0761 207.591,-463.6667 463.666,-463.6667 256.077,0 463.668,207.5906 463.668,463.6667 0,256.0761 -207.591,463.6667 -463.668,463.6667 -256.075,0 -463.666,-207.5906 -463.666,-463.6667"
                   style="fill:none;stroke:#000000;stroke-width:1.85705;stroke-linecap:round;stroke-linejoin:round;stroke-miterlimit:10;stroke-dasharray:none;stroke-opacity:1"
                   id="path6178-1-3-7" />
                <path
                   d="M 3096.9201,7367.8764 V 7102.6506 H 1963.0799 v 264.7177 z"
                   style="fill:none;stroke:#000000;stroke-width:1.62663;stroke-linecap:round;stroke-linejoin:round;stroke-miterlimit:10;stroke-dasharray:none;stroke-opacity:1"
                   id="path6180-4-3-9"
                   sodipodi:nodetypes="ccccc" />
                <path
                   d="m 15332.676,9269.0515 h -755.352 v 265.2248 h 755.352 v -265.2248"
                   style="fill:none;stroke:#000000;stroke-width:1.62601;stroke-linecap:round;stroke-linejoin:round;stroke-miterlimit:10;stroke-dasharray:none;stroke-opacity:1"
                   id="path6182-7-9-1"
                   sodipodi:nodetypes="ccccc" />
                <path
                   d="M 15758,7192 V 6578 H 3475 v 1890 h 14079 l 283,-284 h 292.788 V 7240 H 17837 v 236 h -1795 l -284,-284"
                   style="fill:none;stroke:#000000;stroke-width:1.89244;stroke-linecap:round;stroke-linejoin:round;stroke-miterlimit:10;stroke-dasharray:none;stroke-opacity:1"
                   id="path6184-9-7-6"
                   sodipodi:nodetypes="cccccccccccc" />
                <path
                   d="m 10797.677,9269.8471 h -755.387 v 264.4011 l 755.098,0.8253 z"
                   style="fill:none;stroke:#000000;stroke-width:1.62432;stroke-linecap:round;stroke-linejoin:round;stroke-miterlimit:10;stroke-dasharray:none;stroke-opacity:1"
                   id="path6186-7-3-6"
                   sodipodi:nodetypes="ccccc" />
                <path
                   d="m 5883.7095,9269.0515 h -755.3854 v 265.2248 h 755.3854 v -265.2248"
                   style="fill:none;stroke:#000000;stroke-width:1.62604;stroke-linecap:round;stroke-linejoin:round;stroke-miterlimit:10;stroke-dasharray:none;stroke-opacity:1"
                   id="path6188-9-0-3"
                   sodipodi:nodetypes="ccccc" />
                <path
                   d="M 18604.054,5820.3974 V 9982.1087 H 3371.2789 L 1573.9455,8184.5056 V 5820.3974 H 2975.7523 V 5442.06 h 916.2025 l 189.2457,-189.1687 h 189.2457 L 4459.6919,5442.06 H 5375.94 v 378.3374 H 8889.453 V 5442.06 H 11288.6 v 378.3374 h 3513.513 V 5442.06 h 916.195 l 189.246,-189.1687 h 189.245 l 189.246,189.1687 h 916.256 v 378.3374 h 1401.753"
                   style="fill:none;stroke:#000000;stroke-width:1.89451;stroke-linecap:round;stroke-linejoin:round;stroke-miterlimit:10;stroke-dasharray:none;stroke-opacity:1"
                   id="path6194-5-1-1"
                   sodipodi:nodetypes="cccccccccccccccccccccccccc" />
              </g>
            </g>
          </g>
        </g>
      </g>
    </g>
  </g>
</svg>
