<?xml version="1.0" encoding="UTF-8" standalone="no"?>
<svg
   xmlns:dc="http://purl.org/dc/elements/1.1/"
   xmlns:cc="http://creativecommons.org/ns#"
   xmlns:rdf="http://www.w3.org/1999/02/22-rdf-syntax-ns#"
   xmlns:svg="http://www.w3.org/2000/svg"
   xmlns="http://www.w3.org/2000/svg"
   xmlns:sodipodi="http://sodipodi.sourceforge.net/DTD/sodipodi-0.dtd"
   xmlns:inkscape="http://www.inkscape.org/namespaces/inkscape"
   width="300mm"
   height="250mm"
   viewBox="0 0 300 250"
   version="1.1"
   id="svg3280"
   inkscape:version="1.0.2-2 (e86c870879, 2021-01-15)"
   sodipodi:docname="kaikki_osat.svg">
  <defs
     id="defs3274">
    <clipPath
       clipPathUnits="userSpaceOnUse"
       id="clipPath3859">
      <path
         d="m 5289,6756 h 8997 V 8195 H 5289 V 6756"
         id="path3857" />
    </clipPath>
    <clipPath
       clipPathUnits="userSpaceOnUse"
       id="clipPath3881">
      <path
         d="M 0,0 H 19842 V 14031 H 0 V 0"
         id="path3879" />
    </clipPath>
    <clipPath
       clipPathUnits="userSpaceOnUse"
       id="clipPath3941">
      <path
         d="M 0,0 H 19842 V 14031 H 0 V 0"
         id="path3939" />
    </clipPath>
    <clipPath
       clipPathUnits="userSpaceOnUse"
       id="clipPath3953">
      <path
         d="M 0,0 H 19842 V 14031 H 0 V 0"
         id="path3951" />
    </clipPath>
    <clipPath
       clipPathUnits="userSpaceOnUse"
       id="clipPath4446">
      <path
         d="m 5697,4961 h 8997 V 9423 H 5697 V 4961"
         id="path4444" />
    </clipPath>
    <clipPath
       clipPathUnits="userSpaceOnUse"
       id="clipPath4458">
      <path
         d="M 0,0 H 19842 V 14031 H 0 V 0"
         id="path4456" />
    </clipPath>
    <clipPath
       clipPathUnits="userSpaceOnUse"
       id="clipPath4518">
      <path
         d="M 0,0 H 19842 V 14031 H 0 V 0"
         id="path4516" />
    </clipPath>
    <clipPath
       clipPathUnits="userSpaceOnUse"
       id="clipPath4530">
      <path
         d="M 0,0 H 19842 V 14031 H 0 V 0"
         id="path4528" />
    </clipPath>
    <clipPath
       clipPathUnits="userSpaceOnUse"
       id="clipPath3859-5">
      <path
         d="m 5289,6756 h 8997 V 8195 H 5289 V 6756"
         id="path3857-0" />
    </clipPath>
    <clipPath
       clipPathUnits="userSpaceOnUse"
       id="clipPath3859-5-8">
      <path
         d="m 5289,6756 h 8997 V 8195 H 5289 V 6756"
         id="path3857-0-9" />
    </clipPath>
    <clipPath
       clipPathUnits="userSpaceOnUse"
       id="clipPath4996">
      <path
         d="m 5963,6946 h 8997 V 9141 H 5963 V 6946"
         id="path4994" />
    </clipPath>
    <clipPath
       clipPathUnits="userSpaceOnUse"
       id="clipPath5012">
      <path
         d="M 0,0 H 19842 V 14031 H 0 V 0"
         id="path5010" />
    </clipPath>
    <clipPath
       clipPathUnits="userSpaceOnUse"
       id="clipPath5072">
      <path
         d="M 0,0 H 19842 V 14031 H 0 V 0"
         id="path5070" />
    </clipPath>
    <clipPath
       clipPathUnits="userSpaceOnUse"
       id="clipPath5084">
      <path
         d="M 0,0 H 19842 V 14031 H 0 V 0"
         id="path5082" />
    </clipPath>
    <clipPath
       clipPathUnits="userSpaceOnUse"
       id="clipPath5571">
      <path
         d="m 7449,5298 h 3612 V 8910 H 7449 V 5298"
         id="path5569" />
    </clipPath>
    <clipPath
       clipPathUnits="userSpaceOnUse"
       id="clipPath5583">
      <path
         d="M 0,0 H 19842 V 14031 H 0 V 0"
         id="path5581" />
    </clipPath>
    <clipPath
       clipPathUnits="userSpaceOnUse"
       id="clipPath5643">
      <path
         d="M 0,0 H 19842 V 14031 H 0 V 0"
         id="path5641" />
    </clipPath>
    <clipPath
       clipPathUnits="userSpaceOnUse"
       id="clipPath5655">
      <path
         d="M 0,0 H 19842 V 14031 H 0 V 0"
         id="path5653" />
    </clipPath>
    <clipPath
       clipPathUnits="userSpaceOnUse"
       id="clipPath5571-7">
      <path
         d="m 7449,5298 h 3612 V 8910 H 7449 V 5298"
         id="path5569-6" />
    </clipPath>
    <clipPath
       clipPathUnits="userSpaceOnUse"
       id="clipPath6176">
      <path
         d="m 1433,5103 h 17312 v 5029 H 1433 V 5103"
         id="path6174" />
    </clipPath>
    <clipPath
       clipPathUnits="userSpaceOnUse"
       id="clipPath6202">
      <path
         d="M 0,0 H 19842 V 14031 H 0 V 0"
         id="path6200" />
    </clipPath>
    <clipPath
       clipPathUnits="userSpaceOnUse"
       id="clipPath6262">
      <path
         d="M 0,0 H 19842 V 14031 H 0 V 0"
         id="path6260" />
    </clipPath>
    <clipPath
       clipPathUnits="userSpaceOnUse"
       id="clipPath6274">
      <path
         d="M 0,0 H 19842 V 14031 H 0 V 0"
         id="path6272" />
    </clipPath>
    <clipPath
       clipPathUnits="userSpaceOnUse"
       id="clipPath6176-5">
      <path
         d="m 1433,5103 h 17312 v 5029 H 1433 V 5103"
         id="path6174-1" />
    </clipPath>
    <clipPath
       clipPathUnits="userSpaceOnUse"
       id="clipPath6837">
      <path
         d="m 4949,5069 h 10699 v 5785 H 4949 V 5069"
         id="path6835" />
    </clipPath>
    <clipPath
       clipPathUnits="userSpaceOnUse"
       id="clipPath6875">
      <path
         d="M 0,0 H 19842 V 14031 H 0 V 0"
         id="path6873" />
    </clipPath>
    <clipPath
       clipPathUnits="userSpaceOnUse"
       id="clipPath6935">
      <path
         d="M 0,0 H 19842 V 14031 H 0 V 0"
         id="path6933" />
    </clipPath>
    <clipPath
       clipPathUnits="userSpaceOnUse"
       id="clipPath6947">
      <path
         d="M 0,0 H 19842 V 14031 H 0 V 0"
         id="path6945" />
    </clipPath>
    <clipPath
       clipPathUnits="userSpaceOnUse"
       id="clipPath6176-5-4">
      <path
         d="m 1433,5103 h 17312 v 5029 H 1433 V 5103"
         id="path6174-1-2" />
    </clipPath>
    <clipPath
       clipPathUnits="userSpaceOnUse"
       id="clipPath1465">
      <path
         d="M 6194,4636 H 16893 V 9996 H 6194 V 4636"
         id="path1463" />
    </clipPath>
    <clipPath
       clipPathUnits="userSpaceOnUse"
       id="clipPath1503">
      <path
         d="M 0,0 H 19842 V 14031 H 0 V 0"
         id="path1501" />
    </clipPath>
    <clipPath
       clipPathUnits="userSpaceOnUse"
       id="clipPath1563">
      <path
         d="M 0,0 H 19842 V 14031 H 0 V 0"
         id="path1561" />
    </clipPath>
    <clipPath
       clipPathUnits="userSpaceOnUse"
       id="clipPath1575">
      <path
         d="M 0,0 H 19842 V 14031 H 0 V 0"
         id="path1573" />
    </clipPath>
    <clipPath
       clipPathUnits="userSpaceOnUse"
       id="clipPath6176-5-7">
      <path
         d="m 1433,5103 h 17312 v 5029 H 1433 V 5103"
         id="path6174-1-8" />
    </clipPath>
    <clipPath
       clipPathUnits="userSpaceOnUse"
       id="clipPath3859-5-8-2">
      <path
         d="m 5289,6756 h 8997 V 8195 H 5289 V 6756"
         id="path3857-0-9-1" />
    </clipPath>
    <clipPath
       clipPathUnits="userSpaceOnUse"
       id="clipPath3859-5-8-2-9">
      <path
         d="m 5289,6756 h 8997 V 8195 H 5289 V 6756"
         id="path3857-0-9-1-0" />
    </clipPath>
    <clipPath
       clipPathUnits="userSpaceOnUse"
       id="clipPath3859-5-8-5">
      <path
         d="m 5289,6756 h 8997 V 8195 H 5289 V 6756"
         id="path3857-0-9-7" />
    </clipPath>
    <clipPath
       clipPathUnits="userSpaceOnUse"
       id="clipPath3859-5-8-52">
      <path
         d="m 5289,6756 h 8997 V 8195 H 5289 V 6756"
         id="path3857-0-9-3" />
    </clipPath>
    <clipPath
       clipPathUnits="userSpaceOnUse"
       id="clipPath3859-5-8-52-0">
      <path
         d="m 5289,6756 h 8997 V 8195 H 5289 V 6756"
         id="path3857-0-9-3-4" />
    </clipPath>
    <clipPath
       clipPathUnits="userSpaceOnUse"
       id="clipPath6176-5-5">
      <path
         d="m 1433,5103 h 17312 v 5029 H 1433 V 5103"
         id="path6174-1-7" />
    </clipPath>
    <clipPath
       clipPathUnits="userSpaceOnUse"
       id="clipPath3859-5-8-1">
      <path
         d="m 5289,6756 h 8997 V 8195 H 5289 V 6756"
         id="path3857-0-9-4" />
    </clipPath>
    <clipPath
       clipPathUnits="userSpaceOnUse"
       id="clipPath3859-5-8-1-4">
      <path
         d="m 5289,6756 h 8997 V 8195 H 5289 V 6756"
         id="path3857-0-9-4-6" />
    </clipPath>
    <clipPath
       clipPathUnits="userSpaceOnUse"
       id="clipPath6176-5-5-5">
      <path
         d="m 1433,5103 h 17312 v 5029 H 1433 V 5103"
         id="path6174-1-7-6" />
    </clipPath>
    <clipPath
       clipPathUnits="userSpaceOnUse"
       id="clipPath6176-5-5-1">
      <path
         d="m 1433,5103 h 17312 v 5029 H 1433 V 5103"
         id="path6174-1-7-62" />
    </clipPath>
  </defs>
  <sodipodi:namedview
     id="base"
     pagecolor="#ffffff"
     bordercolor="#666666"
     borderopacity="1.0"
     inkscape:pageopacity="0.0"
     inkscape:pageshadow="2"
     inkscape:zoom="0.66190376"
     inkscape:cx="-119.80898"
     inkscape:cy="334.34524"
     inkscape:document-units="mm"
     inkscape:current-layer="g6172-4-5"
     inkscape:document-rotation="0"
     showgrid="false"
     inkscape:window-width="1920"
     inkscape:window-height="1017"
     inkscape:window-x="-8"
     inkscape:window-y="-8"
     inkscape:window-maximized="1"
     inkscape:snap-global="false"
     units="mm"
     width="300mm" />
  <metadata
     id="metadata3277">
    <rdf:RDF>
      <cc:Work
         rdf:about="">
        <dc:format>image/svg+xml</dc:format>
        <dc:type
           rdf:resource="http://purl.org/dc/dcmitype/StillImage" />
        <dc:title />
      </cc:Work>
    </rdf:RDF>
  </metadata>
  <g
     inkscape:label="Taso 1"
     inkscape:groupmode="layer"
     id="layer1">
    <g
       id="g4990"
       transform="matrix(0.0105809,0,0,-0.01056582,140.01315,256.33172)"
       style="fill:none;stroke:#000000;stroke-width:1.90502;stroke-miterlimit:10;stroke-dasharray:none;stroke-opacity:1" />
    <g
       id="g5078"
       transform="matrix(0.02116667,0,0,-0.02116667,-190.03286,374.51395)" />
    <g
       id="g6941"
       transform="matrix(0.02116667,0,0,-0.02116667,159.80829,385.90013)" />
    <g
       id="g10094"
       transform="translate(0,-0.28265237)">
      <g
         id="g11014">
        <g
           id="g11089">
          <g
             id="g11237">
            <g
               id="g11359">
              <g
                 id="g6172-4-5-4"
                 clip-path="url(#clipPath6176-5-5-1)"
                 style="fill:none;stroke:#000000;stroke-width:1.89244;stroke-miterlimit:10;stroke-dasharray:none;stroke-opacity:1"
                 transform="matrix(0.01056834,0,0,-0.01056834,87.275549,109.61752)">
                <path
                   d="m 16230.986,6774.4586 c 0,-257.1192 208.436,-465.5553 465.555,-465.5553 257.12,0 465.556,208.4361 465.556,465.5553 0,257.1192 -208.436,465.5553 -465.556,465.5553 -257.119,0 -465.555,-208.4361 -465.555,-465.5553"
                   style="fill:none;stroke:#000000;stroke-width:1.86462;stroke-linecap:round;stroke-linejoin:round;stroke-miterlimit:10;stroke-dasharray:none;stroke-opacity:1"
                   id="path6178-1-3-4" />
                <path
                   d="M 3096.9159,7462.4767 V 7098.8842 H 1963.0841 v 363.0791 z"
                   style="fill:none;stroke:#000000;stroke-width:1.63511;stroke-linecap:round;stroke-linejoin:round;stroke-miterlimit:10;stroke-dasharray:none;stroke-opacity:1"
                   id="path6180-4-3-1"
                   sodipodi:nodetypes="ccccc" />
                <path
                   d="m 15332.672,9265.2604 h -755.344 v 363.6178 h 755.344 v -363.6178"
                   style="fill:none;stroke:#000000;stroke-width:1.63453;stroke-linecap:round;stroke-linejoin:round;stroke-miterlimit:10;stroke-dasharray:none;stroke-opacity:1"
                   id="path6182-7-9-1"
                   sodipodi:nodetypes="ccccc" />
                <path
                   d="M 15758,7192 V 6578 H 3475 v 1890 h 14079 l 283,-284 h 391.187 V 7240 H 17837 v 236 h -1795 l -284,-284"
                   style="fill:none;stroke:#000000;stroke-width:1.89244;stroke-linecap:round;stroke-linejoin:round;stroke-miterlimit:10;stroke-dasharray:none;stroke-opacity:1"
                   id="path6184-9-7-1"
                   sodipodi:nodetypes="cccccccccccc" />
                <path
                   d="m 10797.673,9266.0682 h -755.379 v 362.7733 l 755.09,0.834 z"
                   style="fill:none;stroke:#000000;stroke-width:1.63281;stroke-linecap:round;stroke-linejoin:round;stroke-miterlimit:10;stroke-dasharray:none;stroke-opacity:1"
                   id="path6186-7-3-2"
                   sodipodi:nodetypes="ccccc" />
                <path
                   d="m 5883.7052,9265.2604 h -755.3768 v 363.6178 h 755.3768 v -363.6178"
                   style="fill:none;stroke:#000000;stroke-width:1.63456;stroke-linecap:round;stroke-linejoin:round;stroke-miterlimit:10;stroke-dasharray:none;stroke-opacity:1"
                   id="path6188-9-0-0"
                   sodipodi:nodetypes="ccccc" />
                <path
                   d="M 18604.054,5820.3974 V 9982.1087 H 3371.2789 L 1573.9455,8184.5056 V 5820.3974 H 2979.5193 V 5442.06 h 912.4355 l 189.2457,-189.1687 h 189.2457 l 189.2457,189.1687 h 912.4457 v 378.3374 h 3521.059 V 5442.06 h 2391.6164 v 378.3374 h 3521.06 V 5442.06 h 912.435 l 189.246,-189.1687 h 189.245 l 189.246,189.1687 h 912.445 v 378.3374 h 1405.564"
                   style="fill:none;stroke:#000000;stroke-width:1.89451;stroke-linecap:round;stroke-linejoin:round;stroke-miterlimit:10;stroke-dasharray:none;stroke-opacity:1"
                   id="path6194-5-1-9"
                   sodipodi:nodetypes="cccccccccccccccccccccccccc" />
              </g>
              <g
                 id="g4440"
                 transform="matrix(0.01058092,0,0,-0.01057719,-53.552812,101.00199)"
                 style="fill:none;stroke:#000000;stroke-width:1.89796;stroke-miterlimit:10;stroke-dasharray:none;stroke-opacity:1">
                <g
                   id="g4442"
                   clip-path="url(#clipPath4446)"
                   style="fill:none;stroke:#000000;stroke-width:1.89796;stroke-miterlimit:10;stroke-dasharray:none;stroke-opacity:1">
                  <path
                     d="m 6983,6247 v 2268 h 6425 V 6247 H 6983"
                     style="fill:none;stroke:#000000;stroke-width:1.89796;stroke-linecap:round;stroke-linejoin:round;stroke-miterlimit:10;stroke-dasharray:none;stroke-opacity:1"
                     id="path4448" />
                  <path
                     d="M 7063.7875,5491 V 5113 H 8602.273 v 378 h 2477.514 v -378 h 782.486 v 378 h 2343.34 V 6895.677 H 14542 v 970.579 h -336.387 V 9271 H 6185.4665 V 7866.256 H 5849 v -970.579 h 336.4665 V 5491 h 878.321"
                     style="fill:none;stroke:#000000;stroke-width:1.89796;stroke-linecap:round;stroke-linejoin:round;stroke-miterlimit:10;stroke-dasharray:none;stroke-opacity:1"
                     id="path4450"
                     sodipodi:nodetypes="ccccccccccccccccccccc" />
                </g>
              </g>
              <g
                 id="g3855-3-1"
                 clip-path="url(#clipPath3859-5-8)"
                 style="fill:none;stroke:#000000;stroke-width:1.91341;stroke-miterlimit:4;stroke-dasharray:none;stroke-opacity:1"
                 transform="matrix(-0.01055437,0,0,0.01035166,157.41439,-16.920309)">
                <path
                   d="M 12622,7286 H 6953"
                   style="fill:none;stroke:#000000;stroke-width:1.91341;stroke-linecap:round;stroke-linejoin:round;stroke-miterlimit:4;stroke-dasharray:none;stroke-opacity:1"
                   id="path3861-7-6" />
                <g
                   id="g3863-6-0"
                   transform="rotate(-90,10049.5,-2573)"
                   style="fill:none;stroke:#000000;stroke-width:1.91341;stroke-miterlimit:4;stroke-dasharray:none;stroke-opacity:1">
                  <path
                     d="M 188.5,0 C 188.5,104.65797 104.10568,189.5 0,189.5 -104.10568,189.5 -188.5,104.65797 -188.5,0"
                     style="fill:none;stroke:#000000;stroke-width:1.91341;stroke-linecap:round;stroke-linejoin:round;stroke-miterlimit:4;stroke-dasharray:none;stroke-opacity:1"
                     id="path3865-7-0" />
                </g>
                <path
                   d="m 6953,7665 h 5669"
                   style="fill:none;stroke:#000000;stroke-width:1.91341;stroke-linecap:round;stroke-linejoin:round;stroke-miterlimit:4;stroke-dasharray:none;stroke-opacity:1"
                   id="path3867-9-2" />
                <g
                   id="g3869-5-7"
                   transform="rotate(90,-261.5,7215)"
                   style="fill:none;stroke:#000000;stroke-width:1.91341;stroke-miterlimit:4;stroke-dasharray:none;stroke-opacity:1">
                  <path
                     d="M 188.5,0 C 188.5,104.65797 104.10568,189.5 0,189.5 -104.10568,189.5 -188.5,104.65797 -188.5,0"
                     style="fill:none;stroke:#000000;stroke-width:1.91341;stroke-linecap:round;stroke-linejoin:round;stroke-miterlimit:4;stroke-dasharray:none;stroke-opacity:1"
                     id="path3871-7-8" />
                </g>
                <path
                   d="m 5764.655,6800.2166 h 8042.402 l 0.592,275.8012 h 337.268 v 789.2454 h -337.268 v 285.4614 H 5767.4253 v -285.4614 h -337.3421 v -789.2454 h 337.3421 l -2.3671,-275.8012"
                   style="fill:none;stroke:#000000;stroke-width:1.91341;stroke-linecap:round;stroke-linejoin:round;stroke-miterlimit:4;stroke-dasharray:none;stroke-opacity:1"
                   id="path3873-2-6"
                   sodipodi:nodetypes="ccccccccccccc" />
              </g>
              <g
                 id="g4992"
                 clip-path="url(#clipPath4996)"
                 style="fill:none;stroke:#000000;stroke-width:1.90502;stroke-miterlimit:10;stroke-dasharray:none;stroke-opacity:1"
                 transform="matrix(0,-0.0105809,-0.01056582,0,329.49559,273.74322)">
                <g
                   id="g8073"
                   transform="matrix(0,-1.0014272,0.99857479,0,2429.4637,18519.931)"
                   style="fill:none;stroke:#000000;stroke-opacity:1">
                  <path
                     d="m 10509.432,9000.7711 c -58.492,0 -105.909,-47.4837 -105.909,-106.0571 0,-58.5745 47.417,-106.0582 105.909,-106.0582 58.491,0 105.908,47.4837 105.908,106.0582 0,58.5734 -47.417,106.0571 -105.908,106.0571"
                     style="fill:none;stroke:#000000;stroke-width:1.77885;stroke-linecap:round;stroke-linejoin:round;stroke-miterlimit:10;stroke-dasharray:none;stroke-opacity:1"
                     id="path4998" />
                  <path
                     d="M 11169.989,8610.8087 V 6434.7078 H 9847.8755 v 2176.1009 h 1322.1135"
                     style="fill:none;stroke:#000000;stroke-width:1.90502;stroke-linecap:round;stroke-linejoin:round;stroke-miterlimit:10;stroke-dasharray:none;stroke-opacity:1"
                     id="path5000" />
                  <path
                     d="m 10509.432,6256.8606 c -58.492,0 -105.909,-47.4837 -105.909,-106.0582 0,-58.5734 47.417,-106.0571 105.909,-106.0571 58.491,0 105.908,47.4837 105.908,106.0571 0,58.5745 -47.417,106.0582 -105.908,106.0582"
                     style="fill:none;stroke:#000000;stroke-width:1.77885;stroke-linecap:round;stroke-linejoin:round;stroke-miterlimit:10;stroke-dasharray:none;stroke-opacity:1"
                     id="path5002" />
                  <path
                     d="M 9881.6141,4027.7381 V 3690.7969 H 11041.44 v 336.9412 h 364.212 v 8031.5959 h -364.212 v 336.87 H 9881.6141 v -336.87 H 9517.3474 V 4027.7664 Z"
                     style="fill:none;stroke:#000000;stroke-width:1.90502;stroke-linecap:round;stroke-linejoin:round;stroke-miterlimit:10;stroke-dasharray:none;stroke-opacity:1"
                     id="path5004"
                     sodipodi:nodetypes="ccccccccccccc" />
                </g>
              </g>
              <g
                 id="g1461"
                 clip-path="url(#clipPath1465)"
                 style="fill:none;stroke:#000000;stroke-width:0.897638;stroke-miterlimit:4;stroke-dasharray:none;stroke-opacity:1"
                 transform="matrix(0.02116667,0,0,-0.02116667,-127.4806,327.38898)">
                <path
                   d="m 14237,8970 h 2126 v -577 h -2126 v 577"
                   style="fill:none;stroke:#000000;stroke-width:0.897638;stroke-linecap:round;stroke-linejoin:round;stroke-miterlimit:4;stroke-dasharray:none;stroke-opacity:1"
                   id="path1467" />
                <path
                   d="m 13669.84,8583.2685 v -189.5967 h -188.68 v 189.3579 z"
                   style="fill:none;stroke:#000000;stroke-width:1.03748;stroke-linecap:round;stroke-linejoin:round;stroke-miterlimit:4;stroke-dasharray:none;stroke-opacity:1"
                   id="path1469"
                   sodipodi:nodetypes="ccccc" />
                <path
                   d="m 14237,6938 v 576 h 2126 v -576 h -2126"
                   style="fill:none;stroke:#000000;stroke-width:0.897638;stroke-linecap:round;stroke-linejoin:round;stroke-miterlimit:4;stroke-dasharray:none;stroke-opacity:1"
                   id="path1471" />
                <path
                   d="m 14851.356,5306.9591 h 1180.288 v -181.4326 l -1180.705,-0.011 z"
                   style="fill:none;stroke:#000000;stroke-width:0.896087;stroke-linecap:round;stroke-linejoin:round;stroke-miterlimit:4;stroke-dasharray:none;stroke-opacity:1"
                   id="path1473"
                   sodipodi:nodetypes="ccccc" />
                <path
                   d="m 16362.935,5756.9355 v 756.129 l 181.485,-0 -0.254,-756.129 z"
                   style="fill:none;stroke:#000000;stroke-width:0.89744;stroke-linecap:round;stroke-linejoin:round;stroke-miterlimit:4;stroke-dasharray:none;stroke-opacity:1"
                   id="path1475"
                   sodipodi:nodetypes="ccccc" />
                <path
                   d="m 16031.643,9325.1461 h -1180.286 v 181.4648 h 1180.286 v -181.4648"
                   style="fill:none;stroke:#000000;stroke-width:0.897386;stroke-linecap:round;stroke-linejoin:round;stroke-miterlimit:4;stroke-dasharray:none;stroke-opacity:1"
                   id="path1477"
                   sodipodi:nodetypes="ccccc" />
                <path
                   d="m 16362.935,7764.9355 v 378.129 l 181.485,-0 -0.254,-376.4598 z"
                   style="fill:none;stroke:#000000;stroke-width:0.89744;stroke-linecap:round;stroke-linejoin:round;stroke-miterlimit:4;stroke-dasharray:none;stroke-opacity:1"
                   id="path1479"
                   sodipodi:nodetypes="ccccc" />
                <path
                   d="m 13078.643,9506.6114 v -181.4641 h -1180.286 l 0.295,181.4648 z"
                   style="fill:none;stroke:#000000;stroke-width:0.897408;stroke-linecap:round;stroke-linejoin:round;stroke-miterlimit:4;stroke-dasharray:none;stroke-opacity:1"
                   id="path1481"
                   sodipodi:nodetypes="ccccc" />
                <path
                   d="M 10125.643,9506.6109 V 9325.1461 H 8945.3566 v 181.4604 z"
                   style="fill:none;stroke:#000000;stroke-width:0.897386;stroke-linecap:round;stroke-linejoin:round;stroke-miterlimit:4;stroke-dasharray:none;stroke-opacity:1"
                   id="path1483"
                   sodipodi:nodetypes="ccccc" />
                <path
                   d="m 11898.357,5306.9584 h 1180.286 v -181.4425 h -1180.286 v 181.4425"
                   style="fill:none;stroke:#000000;stroke-width:0.897491;stroke-linecap:round;stroke-linejoin:round;stroke-miterlimit:4;stroke-dasharray:none;stroke-opacity:1"
                   id="path1485"
                   sodipodi:nodetypes="ccccc" />
                <path
                   d="m 13481.154,7332.274 v 181.343 h 188.692 v -181.343 h -188.692"
                   style="fill:none;stroke:#000000;stroke-width:1.01919;stroke-linecap:round;stroke-linejoin:round;stroke-miterlimit:4;stroke-dasharray:none;stroke-opacity:1"
                   id="path1487"
                   sodipodi:nodetypes="ccccc" />
                <path
                   d="m 6634.1528,5190.5 c 0,-63.1523 51.1949,-114.3472 114.3472,-114.3472 63.1523,0 114.3472,51.1949 114.3472,114.3472 0,63.1523 -51.1949,114.3472 -114.3472,114.3472 -63.1523,0 -114.3472,-51.1949 -114.3472,-114.3472"
                   style="fill:none;stroke:#000000;stroke-width:0.897638;stroke-linecap:round;stroke-linejoin:round;stroke-miterlimit:4;stroke-dasharray:none;stroke-opacity:1"
                   id="path1489" />
                <path
                   d="M 8945.3567,5306.9584 H 10125.643 V 5125.5159 H 8945.3567 v 181.4425"
                   style="fill:none;stroke:#000000;stroke-width:0.897491;stroke-linecap:round;stroke-linejoin:round;stroke-miterlimit:4;stroke-dasharray:none;stroke-opacity:1"
                   id="path1491"
                   sodipodi:nodetypes="ccccc" />
                <path
                   d="m 6634.1528,9442.5 c 0,-63.1518 51.1949,-114.3472 114.3472,-114.3472 63.1523,0 114.3472,51.1954 114.3472,114.3472 0,63.1518 -51.1949,114.3472 -114.3472,114.3472 -63.1523,0 -114.3472,-51.1954 -114.3472,-114.3472"
                   style="fill:none;stroke:#000000;stroke-width:0.897638;stroke-linecap:round;stroke-linejoin:round;stroke-miterlimit:4;stroke-dasharray:none;stroke-opacity:1"
                   id="path1493" />
                <path
                   d="m 6346,4788 h 827 l 165,165 h 9403 V 9679 H 7339 l -166,165 H 6346 V 4788"
                   style="fill:none;fill-opacity:1;stroke:#000000;stroke-width:0.897638;stroke-linecap:round;stroke-linejoin:round;stroke-miterlimit:4;stroke-dasharray:none;stroke-opacity:1"
                   id="path1495" />
              </g>
              <g
                 id="g6172-4-5"
                 clip-path="url(#clipPath6176-5-5)"
                 style="fill:none;stroke:#000000;stroke-width:1.89244;stroke-miterlimit:10;stroke-dasharray:none;stroke-opacity:1"
                 transform="matrix(0.01056834,0,0,-0.01056834,87.298238,163.24419)">
                <path
                   d="m 16230.986,6774.4586 c 0,-257.1192 208.436,-465.5553 465.555,-465.5553 257.12,0 465.556,208.4361 465.556,465.5553 0,257.1192 -208.436,465.5553 -465.556,465.5553 -257.119,0 -465.555,-208.4361 -465.555,-465.5553"
                   style="fill:none;stroke:#000000;stroke-width:1.86462;stroke-linecap:round;stroke-linejoin:round;stroke-miterlimit:10;stroke-dasharray:none;stroke-opacity:1"
                   id="path6178-1-3" />
                <path
                   d="M 3096.9159,7462.4767 V 7098.8842 H 1963.0841 v 363.0791 z"
                   style="fill:none;stroke:#000000;stroke-width:1.63511;stroke-linecap:round;stroke-linejoin:round;stroke-miterlimit:10;stroke-dasharray:none;stroke-opacity:1"
                   id="path6180-4-3"
                   sodipodi:nodetypes="ccccc" />
                <path
                   d="m 15332.672,9265.2604 h -755.344 v 363.6178 h 755.344 v -363.6178"
                   style="fill:none;stroke:#000000;stroke-width:1.63453;stroke-linecap:round;stroke-linejoin:round;stroke-miterlimit:10;stroke-dasharray:none;stroke-opacity:1"
                   id="path6182-7-9"
                   sodipodi:nodetypes="ccccc" />
                <path
                   d="M 15758,7192 V 6578 H 3475 v 1890 h 14079 l 283,-284 h 391.187 V 7240 H 17837 v 236 h -1795 l -284,-284"
                   style="fill:none;stroke:#000000;stroke-width:1.89244;stroke-linecap:round;stroke-linejoin:round;stroke-miterlimit:10;stroke-dasharray:none;stroke-opacity:1"
                   id="path6184-9-7"
                   sodipodi:nodetypes="cccccccccccc" />
                <path
                   d="m 10797.673,9266.0682 h -755.379 v 362.7733 l 755.09,0.834 z"
                   style="fill:none;stroke:#000000;stroke-width:1.63281;stroke-linecap:round;stroke-linejoin:round;stroke-miterlimit:10;stroke-dasharray:none;stroke-opacity:1"
                   id="path6186-7-3"
                   sodipodi:nodetypes="ccccc" />
                <path
                   d="m 5883.7052,9265.2604 h -755.3768 v 363.6178 h 755.3768 v -363.6178"
                   style="fill:none;stroke:#000000;stroke-width:1.63456;stroke-linecap:round;stroke-linejoin:round;stroke-miterlimit:10;stroke-dasharray:none;stroke-opacity:1"
                   id="path6188-9-0"
                   sodipodi:nodetypes="ccccc" />
                <path
                   d="M 18604.054,5820.3974 V 9982.1087 H 3371.2789 L 1573.9455,8184.5056 V 5820.3974 H 2979.5193 V 5442.06 h 912.4355 l 189.2457,-189.1687 h 189.2457 l 189.2457,189.1687 h 912.4457 v 378.3374 h 3521.059 V 5442.06 h 2391.6164 v 378.3374 h 3521.06 V 5442.06 h 912.435 l 189.246,-189.1687 h 189.245 l 189.246,189.1687 h 912.445 v 378.3374 h 1405.564"
                   style="fill:none;stroke:#000000;stroke-width:1.89451;stroke-linecap:round;stroke-linejoin:round;stroke-miterlimit:10;stroke-dasharray:none;stroke-opacity:1"
                   id="path6194-5-1"
                   sodipodi:nodetypes="cccccccccccccccccccccccccc" />
              </g>
              <g
                 id="g3855-3-1-1"
                 clip-path="url(#clipPath3859-5-8-1)"
                 style="fill:none;stroke:#000000;stroke-width:1.91341;stroke-miterlimit:4;stroke-dasharray:none;stroke-opacity:1"
                 transform="matrix(-0.01055437,0,0,0.01035166,157.46442,-0.75229077)">
                <path
                   d="M 12622,7286 H 6953"
                   style="fill:none;stroke:#000000;stroke-width:1.91341;stroke-linecap:round;stroke-linejoin:round;stroke-miterlimit:4;stroke-dasharray:none;stroke-opacity:1"
                   id="path3861-7-6-5" />
                <g
                   id="g3863-6-0-0"
                   transform="rotate(-90,10049.5,-2573)"
                   style="fill:none;stroke:#000000;stroke-width:1.91341;stroke-miterlimit:4;stroke-dasharray:none;stroke-opacity:1">
                  <path
                     d="M 188.5,0 C 188.5,104.65797 104.10568,189.5 0,189.5 -104.10568,189.5 -188.5,104.65797 -188.5,0"
                     style="fill:none;stroke:#000000;stroke-width:1.91341;stroke-linecap:round;stroke-linejoin:round;stroke-miterlimit:4;stroke-dasharray:none;stroke-opacity:1"
                     id="path3865-7-0-6" />
                </g>
                <path
                   d="m 6953,7665 h 5669"
                   style="fill:none;stroke:#000000;stroke-width:1.91341;stroke-linecap:round;stroke-linejoin:round;stroke-miterlimit:4;stroke-dasharray:none;stroke-opacity:1"
                   id="path3867-9-2-0" />
                <g
                   id="g3869-5-7-1"
                   transform="rotate(90,-261.5,7215)"
                   style="fill:none;stroke:#000000;stroke-width:1.91341;stroke-miterlimit:4;stroke-dasharray:none;stroke-opacity:1">
                  <path
                     d="M 188.5,0 C 188.5,104.65797 104.10568,189.5 0,189.5 -104.10568,189.5 -188.5,104.65797 -188.5,0"
                     style="fill:none;stroke:#000000;stroke-width:1.91341;stroke-linecap:round;stroke-linejoin:round;stroke-miterlimit:4;stroke-dasharray:none;stroke-opacity:1"
                     id="path3871-7-8-0" />
                </g>
                <path
                   d="m 5764.655,6800.2166 h 8042.402 l 0.592,275.8012 h 337.268 v 789.2454 h -337.268 v 285.4614 H 5767.4253 v -285.4614 h -337.3421 v -789.2454 h 337.3421 l -2.3671,-275.8012"
                   style="fill:none;stroke:#000000;stroke-width:1.91341;stroke-linecap:round;stroke-linejoin:round;stroke-miterlimit:4;stroke-dasharray:none;stroke-opacity:1"
                   id="path3873-2-6-4"
                   sodipodi:nodetypes="ccccccccccccc" />
              </g>
              <g
                 id="g3855-3-1-1-6"
                 clip-path="url(#clipPath3859-5-8-1-4)"
                 style="fill:none;stroke:#000000;stroke-width:1.91341;stroke-miterlimit:4;stroke-dasharray:none;stroke-opacity:1"
                 transform="matrix(-0.01055437,0,0,0.01035166,158.26388,15.236942)">
                <path
                   d="M 12622,7286 H 6953"
                   style="fill:none;stroke:#000000;stroke-width:1.91341;stroke-linecap:round;stroke-linejoin:round;stroke-miterlimit:4;stroke-dasharray:none;stroke-opacity:1"
                   id="path3861-7-6-5-3" />
                <g
                   id="g3863-6-0-0-8"
                   transform="rotate(-90,10049.5,-2573)"
                   style="fill:none;stroke:#000000;stroke-width:1.91341;stroke-miterlimit:4;stroke-dasharray:none;stroke-opacity:1">
                  <path
                     d="M 188.5,0 C 188.5,104.65797 104.10568,189.5 0,189.5 -104.10568,189.5 -188.5,104.65797 -188.5,0"
                     style="fill:none;stroke:#000000;stroke-width:1.91341;stroke-linecap:round;stroke-linejoin:round;stroke-miterlimit:4;stroke-dasharray:none;stroke-opacity:1"
                     id="path3865-7-0-6-9" />
                </g>
                <path
                   d="m 6953,7665 h 5669"
                   style="fill:none;stroke:#000000;stroke-width:1.91341;stroke-linecap:round;stroke-linejoin:round;stroke-miterlimit:4;stroke-dasharray:none;stroke-opacity:1"
                   id="path3867-9-2-0-4" />
                <g
                   id="g3869-5-7-1-4"
                   transform="rotate(90,-261.5,7215)"
                   style="fill:none;stroke:#000000;stroke-width:1.91341;stroke-miterlimit:4;stroke-dasharray:none;stroke-opacity:1">
                  <path
                     d="M 188.5,0 C 188.5,104.65797 104.10568,189.5 0,189.5 -104.10568,189.5 -188.5,104.65797 -188.5,0"
                     style="fill:none;stroke:#000000;stroke-width:1.91341;stroke-linecap:round;stroke-linejoin:round;stroke-miterlimit:4;stroke-dasharray:none;stroke-opacity:1"
                     id="path3871-7-8-0-0" />
                </g>
                <path
                   d="m 5764.655,6800.2166 h 8042.402 l 0.592,275.8012 h 337.268 v 789.2454 h -337.268 v 285.4614 H 5767.4253 v -285.4614 h -337.3421 v -789.2454 h 337.3421 l -2.3671,-275.8012"
                   style="fill:none;stroke:#000000;stroke-width:1.91341;stroke-linecap:round;stroke-linejoin:round;stroke-miterlimit:4;stroke-dasharray:none;stroke-opacity:1"
                   id="path3873-2-6-4-8"
                   sodipodi:nodetypes="ccccccccccccc" />
              </g>
            </g>
          </g>
        </g>
      </g>
    </g>
  </g>
</svg>
